# xmcd
#
# Track frame offsets: 
#        150
#        11838
#        25141
#        36907
#        48899
#        62341
#        73456
#        86425
#        99939
#        111109
#        122485
#        136917
#        151161
#        162018
#        175454
#        188690
#        201197
#        215835
#        229391
#        242428
#        256600
#        269293
#        279725
#        291249
#        303469
#        316903
#        329406
#        341098
#
# Disc length: 4722 seconds
#
# Revision: 0
# Processed by: cddbd v1.5.2PL0 Copyright (c) Steve Scherf et al.
# Submitted via: ExactAudioCopyFreeDBPlugin 1.0
#
DISCID=9212701c
DTITLE=Various Artist - VA - Really the Blues - Disc 23
DYEAR=1900
DGENRE=40s
TTITLE0=Richard Trice - Blood Red River Blues
TTITLE1=Mahalia  Jackson - Dig a Little Deeper
TTITLE2=Roy Hogsed - Cocaine Blues
TTITLE3=Count Basie - Seventh Avenue Express
TTITLE4=Red Rodney - Elevation
TTITLE5=Anita O'Day - Hi Ho Trailus Boot Whip
TTITLE6=Boyd Raeburn - Boyd Meets Stravinsky
TTITLE7=Ravens - Old Man River
TTITLE8=Johnny Mercer and Nat King Cole - My Baby Likes to Bebop
TTITLE9=Dizzy Gillespie - Relaxin' at Camarillo
TTITLE10=Lee Wiley and Jess Stacy - A Woman Alone with the Blues
TTITLE11=Memphis Minnie - Blue Monday Blues
TTITLE12=Ella Mae Morse - Get Off It and Go
TTITLE13=Duke Ellington - The Clothed Woman
TTITLE14=Dusty Fletcher - Open the Door Richard
TTITLE15=Nellie Lutcher - There's Another Mule in Your Stall
TTITLE16=Slim Gaillard - I'm Confessin'
TTITLE17=Mary Ann McCall - On Time
TTITLE18=Eddie Cleanhead Vinson - I Took the Front Door In
TTITLE19=Maddox Brothers and Rose - Milk Cow Blues
TTITLE20=Annie Laurie and Paul Gayten - Annie's Blues
TTITLE21=Roy Brown - Rainy Weather Blues
TTITLE22=Babs Gonzalez and James Moody - A Lesson in Bopology
TTITLE23=Tommy Duncan - Wrong Road Blues
TTITLE24=Lightning Hopkins - Grievance Blues
TTITLE25=Johnny and Jack - Lonesome
TTITLE26=Madame Ernestine - While the Blood Runs Warm
TTITLE27=Soul Stirrers - This Is My Prayer
EXTD=
EXTT0=
EXTT1=
EXTT2=
EXTT3=
EXTT4=
EXTT5=
EXTT6=
EXTT7=
EXTT8=
EXTT9=
EXTT10=
EXTT11=
EXTT12=
EXTT13=
EXTT14=
EXTT15=
EXTT16=
EXTT17=
EXTT18=
EXTT19=
EXTT20=
EXTT21=
EXTT22=
EXTT23=
EXTT24=
EXTT25=
EXTT26=
EXTT27=
PLAYORDER=
